<?xml version="1.0" encoding="utf-8"?>
<!-- Svg Vector Icons : http://www.onlinewebfonts.com/icon -->
<!DOCTYPE svg PUBLIC "-//W3C//DTD SVG 1.1//EN" "http://www.w3.org/Graphics/SVG/1.1/DTD/svg11.dtd">
<svg version="1.1" xmlns="http://www.w3.org/2000/svg" xmlns:xlink="http://www.w3.org/1999/xlink" x="0px" y="0px" viewBox="0 0 1000 1000" enable-background="new 0 0 1000 1000" xml:space="preserve">
<metadata> Svg Vector Icons : http://www.onlinewebfonts.com/icon </metadata>
<g><g transform="translate(0.000000,511.000000) scale(0.100000,-0.100000)"><path d="M9112.9,4856.5c-35.5-43.2-25.4-58.4,144.7-243.7l83.8-88.9l-563.6-502.7L8214.2,3516L8072,3673.4l-139.6,154.9l-368.1-327.5c-444.3-396.1-517.9-507.8-502.7-756.6c5.1-88.9,7.6-159.9,5.1-159.9c-2.6,0-81.3,88.9-175.2,198c-93.9,106.6-180.2,198-187.9,203.1c-10.1,2.5-370.7-307.2-802.3-693.1c-520.5-462.1-789.6-688-802.3-667.7c-10.2,17.8-27.9,86.3-35.5,152.3c-10.2,66-25.4,121.9-35.6,121.9c-38.1,0-129.5-119.3-129.5-170.1c0-35.5-114.2-152.3-355.4-365.6c-195.5-172.6-355.4-319.9-355.4-330.1c0-7.6,27.9-40.6,63.5-73.6c53.3-50.8,68.6-53.3,106.6-25.4c111.7,83.8-152.3-159.9-705.8-655l-601.7-535.7l-223.4-515.4c-124.4-284.4-297-657.6-385.9-832.7C1892.4-2676.3,1379.6-3092.6,785.5-2940.3L623-2897.2l-261.5-159.9C216.8-3146,100-3222.1,100-3229.7c2.5-7.6,129.5-114.2,281.8-241.2c787-639.8,865.8-716,1071.4-1053.6c53.3-88.9,101.6-154.9,106.6-149.8c5.1,7.6,83.8,142.2,172.6,302.1l162.5,292l649.9,583.9c355.4,322.4,837.8,754,1071.4,959.7l424,375.7l63.5-58.4c83.8-78.7,149.8-213.3,248.8-502.7c106.6-317.4,241.2-660.1,256.4-660.1c45.7,0,1152.6,467.2,1152.6,487.5c0,12.7-114.3,223.4-253.9,469.7c-139.6,246.3-253.9,454.4-253.9,462.1c0,10.1,81.3,96.5,177.7,192.9c284.4,281.8,327.5,502.7,149.8,776.9l-83.8,132l162.5,147.3l160,147.3l167.6-180.3c223.4-243.7,495.1-439.2,858.1-624.6c312.3-159.9,794.6-370.7,807.3-355.4c17.8,17.8,469.7,1084.1,469.7,1106.9c0,10.2-116.8,71.1-259,132c-601.7,253.9-995.2,490-1091.7,655c-40.6,68.6-40.6,78.7-5.1,109.2c68.6,55.8,101.6,152.3,165,464.6l58.4,299.6l383.3,345.3c208.2,190.4,391,352.9,401.1,363.1c12.7,7.6-58.4,106.6-157.4,215.8c-96.5,109.2-175.2,203.1-170.1,205.7c2.5,2.5,48.2-5.1,104.1-17.8c124.4-27.9,274.2-7.6,401.1,55.9c50.8,25.4,253.9,190.4,449.4,365.6l355.4,319.9l-73.6,91.4c-40.6,53.3-96.5,116.8-126.9,142.2c-30.4,27.9-53.3,63.5-53.3,78.7c0,17.8,152.3,167.6,337.7,332.6c182.8,165,497.6,446.8,698.2,627.1l360.5,325l-132,152.3l-132,152.3l-96.5-96.5l-99-96.5l-126.9,147.3c-71.1,78.7-137.1,144.7-149.8,144.7C9153.6,4894.6,9130.7,4876.8,9112.9,4856.5z M5050.8,1533.2c0-5.1-20.3-25.4-43.2-43.2c-40.6-33-43.2-30.5-10.2,10.2C5030.5,1540.8,5050.8,1553.5,5050.8,1533.2z M4847.7,1358c0-5.1-30.5-35.5-68.5-71.1L4708,1226l60.9,71.1C4827.4,1360.5,4847.7,1378.3,4847.7,1358z M4619.2,1154.9c0-5.1-30.5-35.6-68.6-71.1l-71.1-60.9l60.9,71.1C4598.9,1157.4,4619.2,1175.2,4619.2,1154.9z M5886.1,1101.6l55.8-60.9l-756.6-665.2C4769,7.3,4405.9-312.6,4375.4-338c-50.8-48.3-53.3-45.7-106.6,27.9l-55.9,73.6l792.1,700.7c436.7,383.4,802.3,698.2,809.9,698.2C5822.6,1162.5,5855.6,1134.6,5886.1,1101.6z M5490-1056.5c149.8-238.6,119.3-385.9-129.5-632.2l-172.6-170.1l-104.1,182.8l-106.6,185.3l93.9,15.2c50.8,10.2,119.3,7.6,152.3-5.1c106.6-40.6,208.2-27.9,208.2,25.4c0,35.5-25.4,50.8-101.5,60.9c-55.9,7.6-142.2,38.1-192.9,71.1l-93.9,58.4l175.2,160c96.5,86.3,180.3,159.9,187.9,159.9C5413.8-944.8,5451.9-995.5,5490-1056.5z M2755.6-2361.4c83.8-93.9,159.9-182.8,170.1-198c10.2-15.3-274.2-289.4-670.3-647.4c-378.3-340.2-698.2-639.8-713.4-665.2c-22.8-43.2-40.6-30.5-192.9,114.2c-93.9,86.3-233.6,213.3-309.7,279.3c-134.6,116.8-137.1,119.3-58.4,106.6c142.2-27.9,431.6,40.6,649.9,149.8c264.1,132,548.4,413.8,779.4,774.4c91.4,142.2,170.1,256.4,177.7,256.4C2595.7-2188.8,2669.3-2267.5,2755.6-2361.4z"/></g></g>
</svg>